<svg id="Layer_2" data-name="Layer 2" xmlns="http://www.w3.org/2000/svg" viewBox="0 0 1000 350"><defs><style>.cls-1{fill:#fff;}.cls-2{fill:#f18610;}</style></defs><g id="P"><path class="cls-1" d="M64.28,266.72A24.37,24.37,0,0,1,39.9,242.34c0-18.13.14-42.08.29-65.25.13-22.56.28-45.88.28-63.69,0-46.6,37.17-87.32,82.82-90.78A89.77,89.77,0,0,1,220,112.13c0,48.23-42.07,87.48-93.79,87.48a24.38,24.38,0,1,1,0-48.76c21.75,0,45-15.56,45-38.72A41,41,0,0,0,127,71.24c-20.1,1.52-37.74,21.23-37.75,42.17,0,18-.15,41.35-.29,64-.14,23.09-.28,47-.28,65A24.38,24.38,0,0,1,64.28,266.72Z"/></g><g id="R"><path class="cls-1" d="M242.25,265.36h-.06a24.38,24.38,0,0,1-24.32-24.44s.07-31.17.07-67.84c0-49.78,35.49-85.91,84.4-85.91a24.38,24.38,0,1,1,0,48.76c-22.32,0-35.64,13.89-35.64,37.15,0,36.74-.07,68-.07,68A24.38,24.38,0,0,1,242.25,265.36Z"/></g><g id="I"><path class="cls-1" d="M358.05,266a24.38,24.38,0,0,1-24.38-24.38V113a24.38,24.38,0,0,1,48.76,0V241.62A24.37,24.37,0,0,1,358.05,266Z"/></g><path class="cls-1" d="M811.76,281.41a24.38,24.38,0,0,0-33-10.13c-46.78,24.79-85.2,29.65-111.1,14.06-25-15-36.38-47.93-36.38-72.11,0-9.43-.1-16.59-.2-24.18-.11-8.49-.23-17.27-.23-30.46l0-1c-1.79-45.15-36.55-68.77-70-68.77a71.31,71.31,0,0,0-45.49,16.32,69,69,0,0,0-47.57-16.69c-37,1.23-67.12,32.92-67.12,70.62v82.52a24.38,24.38,0,0,0,48.76,0V159.1c0-11.7,9-21.52,20-21.89a20.72,20.72,0,0,1,21.45,20.71v83.7a24.38,24.38,0,0,0,48.76,0V159.34c.92-20.15,16.46-21.73,21.22-21.73s20.22,1.56,21.23,21.52c0,13.22.12,22,.24,30.58.1,7.38.19,14.35.19,23.52,0,35.88,15.71,87.23,60,113.89,14.32,8.61,34.09,15.88,60.07,15.87,26.36,0,59.11-7.48,99-28.63A24.37,24.37,0,0,0,811.76,281.41Z"/><path class="cls-1" d="M882.91,266.18a47.52,47.52,0,0,1-45.69-33.8L801.81,120a24.38,24.38,0,0,1,46.5-14.66l34.57,109.68,32.4-108.74A24.38,24.38,0,0,1,962,120.23L928.67,232.16a47.56,47.56,0,0,1-45.71,34Z"/><circle class="cls-1" cx="358.05" cy="46.59" r="24.38"/><path class="cls-2" d="M789.44,134.49A70,70,0,0,0,770.12,89.1a66.49,66.49,0,0,0-43.84-20.73c-1.44-.1-2.89-.14-4.33-.14s-2.89,0-4.33.14A66.44,66.44,0,0,0,673.79,89.1a70.28,70.28,0,0,0,8.51,104.53,21.9,21.9,0,0,1,8.85,17.46v8c17.85,7.39,45.57,7.85,61.6-.84v-7.12a21.9,21.9,0,0,1,8.85-17.46A69.93,69.93,0,0,0,789.44,134.49Z"/><path class="cls-1" d="M721.72,228.1c-12.54,0-25-2.32-33.52-7a4.88,4.88,0,1,1,4.7-8.55c13.05,7.18,44.15,8.18,59.31-.59a4.87,4.87,0,0,1,4.88,8.44C748.24,225.51,734.94,228.1,721.72,228.1Z"/><path class="cls-1" d="M693.7,236.89c16.92,5.74,37.57,5.74,54.78,2.87"/><path class="cls-1" d="M726,246.52c-12.36,0-24.05-1.69-33.83-5a4.88,4.88,0,1,1,3.13-9.24c14.34,4.87,33.45,5.84,52.41,2.68a4.88,4.88,0,0,1,1.61,9.62A143.06,143.06,0,0,1,726,246.52Z"/><path class="cls-1" d="M746.32,256.89a4.88,4.88,0,0,0-5.48-4.18c-7.29,1-29.9,2.31-42.58-.27a4.88,4.88,0,1,0-1.94,9.56c2.09.42,4.44.75,6.91,1a19.25,19.25,0,0,0,13,6.77,26.62,26.62,0,0,0,2.81.16A22.84,22.84,0,0,0,735.71,263c2.54-.19,4.76-.42,6.43-.65A4.87,4.87,0,0,0,746.32,256.89Z"/><path class="cls-2" d="M720.09,51.18a4.89,4.89,0,0,1-4.88-4.88V11.88a4.88,4.88,0,0,1,9.75,0V46.3A4.88,4.88,0,0,1,720.09,51.18Z"/><path class="cls-2" d="M661.15,73.12a4.87,4.87,0,0,1-3.45-1.43L630.16,44.16a4.88,4.88,0,1,1,6.9-6.9L664.59,64.8a4.88,4.88,0,0,1-3.44,8.32Z"/><path class="cls-2" d="M779.68,72.9a4.88,4.88,0,0,1-3.45-8.32l27.32-27.32a4.88,4.88,0,1,1,6.89,6.9L783.12,71.47A4.82,4.82,0,0,1,779.68,72.9Z"/><path class="cls-1" d="M690.44,160.16q-.72-2.5-1.45-5c-.49-1.65-1-3.3-1.5-5a2.08,2.08,0,0,1-.1-.55,1.75,1.75,0,0,1,.05-.43.9.9,0,0,1,.16-.29.48.48,0,0,1,.66-.07,1,1,0,0,1,.34.56c.23.75.45,1.53.69,2.32l.71,2.46c.08.26.15.52.23.78s.15.53.23.8a26.37,26.37,0,0,1,.29-2.89,12.36,12.36,0,0,1,.6-2.35,5.33,5.33,0,0,1,.92-1.66,2.38,2.38,0,0,1,1.27-.84,1.87,1.87,0,0,1,1.29.13,3.27,3.27,0,0,1,1.24,1,7.9,7.9,0,0,1,1.07,2,15.85,15.85,0,0,1,.8,2.89,20.28,20.28,0,0,1,.28,2,18.77,18.77,0,0,1,.09,2.13c.47-.2,1-.43,1.43-.69a9.8,9.8,0,0,0,1.45-.93,10.07,10.07,0,0,0,1.44-1.3A13.54,13.54,0,0,0,704,153.5a.47.47,0,0,1,.3-.25.23.23,0,0,1,.21.05.47.47,0,0,1,.13.23.91.91,0,0,1,0,.37,1.8,1.8,0,0,1-.15.49,6,6,0,0,1-.72,1.14,10.36,10.36,0,0,1-1,1.1,14,14,0,0,1-1.17,1c-.4.32-.81.6-1.21.87a13.22,13.22,0,0,1-1.15.68,8.13,8.13,0,0,1-1,.46,18.38,18.38,0,0,1-.27,2.17,10,10,0,0,1-.53,1.86,4.82,4.82,0,0,1-.8,1.38,2.12,2.12,0,0,1-1.1.72,1.91,1.91,0,0,1-1.28-.1,4.45,4.45,0,0,1-1.32-.83c.54,2,1.06,4,1.58,6s1,4,1.51,6.09.92,3.91,1.35,5.86.85,3.89,1.24,5.83.77,3.85,1.12,5.76.67,3.78,1,5.64q.07.41.18,1.11l.24,1.59c.09.58.18,1.2.26,1.86s.17,1.31.25,2,.14,1.27.2,1.87.08,1.12.09,1.59a6.51,6.51,0,0,1,0,1.14c0,.29-.13.45-.24.49s-.23,0-.37-.22a1.54,1.54,0,0,1-.43-.76C698.5,191.11,696.73,184.76,690.44,160.16Zm.83-1.5c.11.4.22.81.34,1.2s.22.81.34,1.21a4.26,4.26,0,0,1,.6-.44c.24-.15.52-.3.82-.45l1-.45,1-.42,1-.39.9-.33c0-.62-.09-1.25-.17-1.87s-.19-1.23-.31-1.83a18.49,18.49,0,0,0-.62-2.41,7.66,7.66,0,0,0-.72-1.58,2.4,2.4,0,0,0-.79-.82,1,1,0,0,0-.8-.12,2.12,2.12,0,0,0-1.22.92,6.39,6.39,0,0,0-.81,1.89,14.34,14.34,0,0,0-.44,2.65C691.31,156.42,691.27,157.5,691.27,158.66Zm1.16,4a6.55,6.55,0,0,0,.66.9,4.27,4.27,0,0,0,.72.65,2.34,2.34,0,0,0,.75.36,1.46,1.46,0,0,0,.72,0,2,2,0,0,0,.93-.57,3.26,3.26,0,0,0,.62-1,6.11,6.11,0,0,0,.36-1.36,13.46,13.46,0,0,0,.13-1.62l-.94.34c-.34.13-.68.26-1,.41l-1,.45a9.12,9.12,0,0,0-.89.49,4.86,4.86,0,0,0-.67.49A1.4,1.4,0,0,0,692.43,162.63Z"/><path class="cls-1" d="M702.54,150.9c-.08-.49-.13-1.05-.17-1.69s0-1.27,0-1.94a17.88,17.88,0,0,1,.19-2,10.14,10.14,0,0,1,.4-1.74,4.58,4.58,0,0,1,.66-1.29,1.43,1.43,0,0,1,.91-.59.78.78,0,0,1,.61.14,1.61,1.61,0,0,1,.47.55,3.89,3.89,0,0,1,.34.82,6.4,6.4,0,0,1,.19,1,11.65,11.65,0,0,1,.07,2.17c-.05.8-.13,1.59-.24,2.38s-.27,1.56-.44,2.29a18.1,18.1,0,0,1-.52,1.91,1.15,1.15,0,0,0,.41,0,1.69,1.69,0,0,0,1.09-.78.91.91,0,0,1,.24-.24.68.68,0,0,1,.68,0,1.18,1.18,0,0,1,.34.33,1.58,1.58,0,0,1,.19.53,2.11,2.11,0,0,1,0,.7c-.13.58-.25,1.25-.36,2s-.21,1.53-.28,2.33-.1,1.59-.1,2.38a16.89,16.89,0,0,0,.14,2.21,7.9,7.9,0,0,0,.23,1.16,3.32,3.32,0,0,0,.3.74,1,1,0,0,0,.36.38.63.63,0,0,0,.4.07,1.27,1.27,0,0,0,.58-.27,3.68,3.68,0,0,0,.57-.6,6.29,6.29,0,0,0,.55-.83c.18-.31.36-.64.53-1q.49-1,.9-2.1c.27-.73.52-1.48.74-2.26s.44-1.58.62-2.42.38-1.7.56-2.61a.76.76,0,0,1,.13-.37.27.27,0,0,1,.18-.12.21.21,0,0,1,.19.09.72.72,0,0,1,.16.27,1.65,1.65,0,0,1,.08.42,1.51,1.51,0,0,1,0,.51c-.06.25-.12.53-.19.85s-.15.65-.22,1l-.21,1c-.07.31-.14.6-.19.84-.14.58-.31,1.2-.51,1.88s-.42,1.36-.66,2-.51,1.33-.79,2a14.48,14.48,0,0,1-.88,1.72,6.29,6.29,0,0,1-1,1.25,2,2,0,0,1-1,.58,1.27,1.27,0,0,1-.78-.13,2.12,2.12,0,0,1-.72-.67,5,5,0,0,1-.59-1.25,10.74,10.74,0,0,1-.43-1.88c-.05-.4-.09-.85-.11-1.36s0-1,0-1.58,0-1.12.08-1.68.08-1.13.14-1.67.11-1.05.18-1.52.14-.89.21-1.25a9,9,0,0,1-.87.56,2.6,2.6,0,0,1-.8.29,1.35,1.35,0,0,1-.94-.15,2.23,2.23,0,0,1-.7-.73,4.6,4.6,0,0,1-.5-1.16A10.46,10.46,0,0,1,702.54,150.9Zm.75-.71a7.56,7.56,0,0,0,.35,1.42,2.55,2.55,0,0,0,.62,1c.16-.47.33-1,.49-1.72s.29-1.39.4-2.14.19-1.49.23-2.24a10.47,10.47,0,0,0-.06-2,2.92,2.92,0,0,0-.25-.94.46.46,0,0,0-.52-.32.9.9,0,0,0-.6.46,3.58,3.58,0,0,0-.42,1,9.32,9.32,0,0,0-.25,1.35,14.5,14.5,0,0,0-.11,1.49,13.75,13.75,0,0,0,0,1.44A11.06,11.06,0,0,0,703.29,150.19Z"/><path class="cls-1" d="M714.58,144.37a.36.36,0,0,1,.33.14,1.24,1.24,0,0,1,.23.43,2.62,2.62,0,0,1,.15.64c0,.24.07.49.09.76,0,.46,0,1,0,1.5s0,1.09-.08,1.63-.12,1.08-.2,1.58a11.45,11.45,0,0,1-.31,1.33l0,.88c0,.29,0,.59,0,.88s.08.74.15,1.23.16,1,.28,1.57a16.89,16.89,0,0,0,.43,1.66,9.19,9.19,0,0,0,.58,1.47,3.89,3.89,0,0,0,.76,1,1.21,1.21,0,0,0,.95.35,1.44,1.44,0,0,0,.77-.32,4,4,0,0,0,.72-.79,8.58,8.58,0,0,0,.66-1.14,14.68,14.68,0,0,0,.61-1.38c.19-.5.38-1,.55-1.55s.32-1.06.47-1.57.27-1,.39-1.46.22-.87.32-1.24a.76.76,0,0,1,.15-.36.26.26,0,0,1,.18-.11.23.23,0,0,1,.19.11.82.82,0,0,1,.15.28,2.35,2.35,0,0,1,.06.42,1.92,1.92,0,0,1-.08.51l-.24.83c-.09.32-.18.64-.27,1s-.19.65-.27,1l-.24.83c-.25.82-.52,1.63-.81,2.41a14.33,14.33,0,0,1-1,2.11,6.39,6.39,0,0,1-1.16,1.51,2.26,2.26,0,0,1-1.4.64,1.75,1.75,0,0,1-1.25-.36,3.82,3.82,0,0,1-1-1.13,8.82,8.82,0,0,1-.77-1.66,20,20,0,0,1-.56-1.95c-.16-.67-.28-1.33-.38-2s-.16-1.25-.21-1.78c0-.16,0-.43,0-.81s0-.8,0-1.29,0-1,0-1.6,0-1.14,0-1.71.06-1.13.11-1.66a12.73,12.73,0,0,1,.18-1.42,4.27,4.27,0,0,1,.27-1C714.3,144.51,714.43,144.38,714.58,144.37Zm-.72-6.71a5.23,5.23,0,0,1,.09-1,2.62,2.62,0,0,1,.27-.75,1.27,1.27,0,0,1,.38-.46.8.8,0,0,1,.44-.18.82.82,0,0,1,.45.1,1.36,1.36,0,0,1,.39.4,2.24,2.24,0,0,1,.28.71,4.22,4.22,0,0,1,.1,1,4.9,4.9,0,0,1-.1,1.06,3.63,3.63,0,0,1-.26.77,1.47,1.47,0,0,1-.38.48.71.71,0,0,1-.87.08,1.13,1.13,0,0,1-.38-.42,2.7,2.7,0,0,1-.28-.72A4.56,4.56,0,0,1,713.86,137.66Z"/><path class="cls-1" d="M723.23,143.87c0,.7.1,1.46.15,2.26s.11,1.62.15,2.45.09,1.64.13,2.45.05,1.59.06,2.32l.3-1.81c.12-.68.25-1.37.42-2.07.13-.53.27-1.08.45-1.63a9.76,9.76,0,0,1,.61-1.53,4.31,4.31,0,0,1,.81-1.12,1.42,1.42,0,0,1,1-.43,1.14,1.14,0,0,1,.77.28,2.51,2.51,0,0,1,.6.77,5.71,5.71,0,0,1,.43,1.11,12.8,12.8,0,0,1,.28,1.32c.07.45.12.91.15,1.37s0,.89,0,1.3c.09-.45.2-.95.32-1.49s.26-1.09.42-1.64a16.74,16.74,0,0,1,.55-1.6,9.47,9.47,0,0,1,.66-1.39,3.64,3.64,0,0,1,.78-.95,1.23,1.23,0,0,1,.9-.33,1.46,1.46,0,0,1,1.08.51,3.07,3.07,0,0,1,.63,1.25,8.27,8.27,0,0,1,.26,1.8c0,.68,0,1.4,0,2.17s-.12,1.6-.23,2.39-.22,1.59-.34,2.37-.22,1.57-.32,2.35-.18,1.57-.22,2.36c0,.33,0,.65,0,1a4.52,4.52,0,0,0,.1.87,1.67,1.67,0,0,0,.27.63.57.57,0,0,0,.48.27,1.36,1.36,0,0,0,.8-.21,3.72,3.72,0,0,0,.8-.68,8.16,8.16,0,0,0,.79-1c.27-.4.52-.82.77-1.28s.5-1,.73-1.46.44-1,.64-1.49.39-.95.57-1.39.33-.83.46-1.18a.92.92,0,0,1,.19-.34.26.26,0,0,1,.2-.08.25.25,0,0,1,.18.13.7.7,0,0,1,.11.3,2,2,0,0,1,0,.43,1.58,1.58,0,0,1-.14.49c-.1.23-.21.49-.33.79l-.39.92-.38.92-.34.78c-.34.78-.7,1.54-1.09,2.28a14.82,14.82,0,0,1-1.2,1.95,5.8,5.8,0,0,1-1.32,1.34,2.18,2.18,0,0,1-1.47.44,1,1,0,0,1-.73-.39,2.44,2.44,0,0,1-.41-.92,5.92,5.92,0,0,1-.17-1.28,14.28,14.28,0,0,1,0-1.46q0-1,.15-2.07c.06-.69.14-1.38.22-2.07s.15-1.38.22-2.06.12-1.39.16-2.08,0-1.36,0-2a11.32,11.32,0,0,0-.14-1.66,3.67,3.67,0,0,0-.38-1.16.81.81,0,0,0-.67-.45.77.77,0,0,0-.62.37,4.87,4.87,0,0,0-.57.94,9.07,9.07,0,0,0-.47,1.16c-.14.4-.25.73-.33,1a20.85,20.85,0,0,0-.59,2.42c-.16.84-.29,1.69-.39,2.54s-.19,1.73-.26,2.6-.13,1.74-.2,2.59a1.51,1.51,0,0,1-.21.8.44.44,0,0,1-.37.23.38.38,0,0,1-.22-.07.68.68,0,0,1-.19-.19,1.25,1.25,0,0,1-.17-.71c0-.38,0-.79,0-1.24s0-.92,0-1.41,0-1,.05-1.51,0-1,0-1.55v-1.09c0-.45,0-.91,0-1.41s-.06-1-.11-1.51a11.18,11.18,0,0,0-.24-1.36,3.28,3.28,0,0,0-.4-1,.72.72,0,0,0-.61-.39.9.9,0,0,0-.65.32,3.58,3.58,0,0,0-.56.85,9,9,0,0,0-.46,1.19c-.14.43-.26.88-.38,1.33s-.2.88-.28,1.29-.15.77-.21,1.06c-.19,1-.34,2.09-.46,3.16s-.19,2.08-.21,3a1.57,1.57,0,0,1-.19.82c-.12.18-.24.27-.37.27A.35.35,0,0,1,723,160a.75.75,0,0,1-.19-.23,1.53,1.53,0,0,1-.13-.38,2.29,2.29,0,0,1,0-.55c0-1.43,0-2.83,0-4.19s-.07-2.66-.12-3.91-.12-2.43-.19-3.53-.16-2.14-.24-3.08a1.52,1.52,0,0,1,0-.48,1.17,1.17,0,0,1,.12-.36.88.88,0,0,1,.21-.22.57.57,0,0,1,.24-.08.51.51,0,0,1,.38.21A1.25,1.25,0,0,1,723.23,143.87Z"/><path class="cls-1" d="M742.58,147.29a6.25,6.25,0,0,1,1-1.06,4.06,4.06,0,0,1,1.09-.67.32.32,0,0,1,.17,0,.58.58,0,0,1,.44.39.79.79,0,0,1,.66-.2,1.27,1.27,0,0,1,.74.43,3.51,3.51,0,0,1,.58.86,5.88,5.88,0,0,1,.56,2.17,12.07,12.07,0,0,1-.09,2.53c0,.28-.09.55-.15.83s-.12.54-.19.81a4.82,4.82,0,0,0,1,.57,5.51,5.51,0,0,0,1.07.32,6.54,6.54,0,0,0,2,.06,12.15,12.15,0,0,0,2-.42.27.27,0,0,1,.15,0,.28.28,0,0,1,.21.2.8.8,0,0,1,0,.38,1,1,0,0,1-.16.41.7.7,0,0,1-.37.28,8.35,8.35,0,0,1-2,.46,6.42,6.42,0,0,1-2-.06,5.74,5.74,0,0,1-1.2-.37,5.25,5.25,0,0,1-1.13-.67,13,13,0,0,1-.93,2,8.87,8.87,0,0,1-1.15,1.65,5.25,5.25,0,0,1-1.27,1.05,2.11,2.11,0,0,1-1.32.27,1.69,1.69,0,0,1-1.05-.55,3.43,3.43,0,0,1-.69-1.24,7.36,7.36,0,0,1-.33-1.75,11.28,11.28,0,0,1,0-2.09,13.27,13.27,0,0,1,.29-1.89,15.76,15.76,0,0,1,.51-1.8,13.2,13.2,0,0,1,.68-1.61A7.9,7.9,0,0,1,742.58,147.29Zm.17,11.09a1.42,1.42,0,0,0,1-.3,4.59,4.59,0,0,0,1-1,9.7,9.7,0,0,0,.91-1.45,12.27,12.27,0,0,0,.72-1.63,8.47,8.47,0,0,1-.84-1,6.82,6.82,0,0,1-.73-1.34,8,8,0,0,1-.48-1.64,6.51,6.51,0,0,1,0-1.88c0-.05,0-.1,0-.16l0-.16a3.45,3.45,0,0,0-1.06,1,7.08,7.08,0,0,0-.85,1.49,11.42,11.42,0,0,0-.62,1.82,13.34,13.34,0,0,0-.33,1.94,12,12,0,0,0-.06,1.48,7.29,7.29,0,0,0,.15,1.38,3.16,3.16,0,0,0,.41,1.05A1,1,0,0,0,742.75,158.38ZM745,148.05a4.63,4.63,0,0,0,0,1.49,6.77,6.77,0,0,0,.42,1.34,6,6,0,0,0,.63,1.12,5.73,5.73,0,0,0,.68.84c.1-.42.18-.83.24-1.24s.07-.65.08-1a8.49,8.49,0,0,0,0-1,7,7,0,0,0-.13-.95,4.32,4.32,0,0,0-.25-.84c-.05-.09-.1-.2-.17-.31a1.66,1.66,0,0,0-.22-.3,1.38,1.38,0,0,0-.26-.23.6.6,0,0,0-.29-.12.49.49,0,0,0-.52.31A2.46,2.46,0,0,0,745,148.05Z"/><path class="cls-1" d="M754.75,148.41c0,.24,0,.63-.09,1.16s-.09,1.14-.13,1.84-.09,1.46-.14,2.28-.08,1.63-.11,2.45,0,1.6,0,2.37,0,1.44,0,2a9.19,9.19,0,0,0,.17,1.45c.08.37.2.58.34.61s.28,0,.47-.24a5.61,5.61,0,0,0,.6-.78c.22-.33.44-.69.67-1.11s.44-.81.65-1.22.41-.78.58-1.13l.4-.82q.57-1.17,1.11-2.34c.37-.78.72-1.54,1-2.26a7.62,7.62,0,0,1-.12-1.2,6.22,6.22,0,0,1,.15-1.32,9.82,9.82,0,0,1,.4-1.4,4.31,4.31,0,0,1,.45-.87,1.24,1.24,0,0,1,.45-.42.64.64,0,0,1,.42-.06.67.67,0,0,1,.47.67,4.28,4.28,0,0,1-.13,1.31c-.1.42-.24.88-.41,1.37s-.37,1-.59,1.53a6,6,0,0,1,.24,1.29c.17,2.94-16.54,37-18.76,57.92-.08.75-1.09,2.22-1,0,.44-17.6,19.07-57,18.85-57.6l-.59,1.27c-.23.49-.49,1-.77,1.6s-.58,1.15-.89,1.76-.63,1.19-1,1.76-.64,1.11-1,1.62a13.29,13.29,0,0,1-.92,1.31,4.74,4.74,0,0,1-.84.84.83.83,0,0,1-.7.22c-.21-.05-.38-.28-.52-.69a9.46,9.46,0,0,1-.31-1.6q-.11-1-.15-2.22c0-.84,0-1.7,0-2.6s0-1.79.05-2.68,0-1.73.09-2.51.07-1.46.11-2.06.08-1.05.11-1.34a1.87,1.87,0,0,1,.13-.53,2.14,2.14,0,0,1,.26-.42,1,1,0,0,1,.31-.25.38.38,0,0,1,.59.23A1.66,1.66,0,0,1,754.75,148.41Z"/></svg>